<svg xmlns="http://www.w3.org/2000/svg" version="1.1" xmlns:xlink="http://www.w3.org/1999/xlink" xmlns:svgjs="http://svgjs.dev/svgjs" viewBox="0 0 1920 1080"><rect width="1920" height="1080" fill="#355e91"></rect><g transform="matrix(0.5750000000000001,0.9959292143521044,-0.9959292143521044,0.5750000000000001,936.9765699472188,-705.9113862914433)"><path d="M0,-1080C-6.500788935670596,-1007.4320079648757,-52.70600827685258,-791.5442217047744,-39.00473361402358,-644.5920477892541C-25.303458951194578,-497.6398738737339,72.18074235201438,-346.83481568778575,82.20764797697402,-198.28695650687888C92.23455360193365,-49.73909732597204,25.979549579311144,82.38525565727912,21.15670013573427,246.69510729618685C16.333850692157394,411.0049589350946,58.550953318417754,633.7927451023318,53.27055131551276,787.5721533265674C47.99014931260777,941.3515615508031,4.909615029976882,1007.6235650319661,-10.52571188169567,1169.371556641601C-25.961038793368225,1331.119548251236,-41.095695468138494,1592.9553624246437,-39.34141015452255,1758.0601029843767C-37.587124840906604,1923.1648435441098,-6.556901692420425,2093.010017164063,0,2160L 1920 2160 L 1920 -1080 Z" fill="url(&quot;#SvgjsLinearGradient1148&quot;)"></path><path d="M320,-1080C310.3938657151747,-989.878450904992,258.26002467629115,-682.2703212724114,262.3631942910482,-539.2707054299517C266.4663639058053,-396.27108958749204,336.5736073746245,-353.00663581275165,344.61901768854227,-222.00230494524217C352.66442800246006,-90.99797407773269,314.048623620986,71.34107390592209,310.63565617455504,246.7552797751053C307.22268872812407,422.1694856442885,320.5963221204549,676.1744079530652,324.1412130099566,830.482930269857C327.68610389945826,984.7914525866488,320.73324540282016,1026.0695453997707,331.9050015115653,1172.606413675856C343.0767576203104,1319.1432819519412,393.15591658102136,1545.1385422056771,391.17174966242715,1709.7041399263678C389.18758274383293,1874.2697376470585,331.8619582770712,2084.950689987728,320,2160L 1920 2160 L 1920 -1080 Z" fill="url(&quot;#SvgjsLinearGradient1149&quot;)"></path><path d="M640,-1080C626.2836312208319,-984.4998415228899,545.8667288548833,-687.4134907527109,557.7017873249914,-506.99904913733997C569.5368457950996,-326.584607521969,701.3941018884755,-172.43948447869164,711.0103508206489,2.4866496922256545C720.6265997528224,177.41278386314295,626.8786825425358,355.20889306769743,615.3992809180323,542.5577558881639C603.9198792935289,729.9066187086304,632.6741359526079,953.7627117894325,642.133941073628,1126.5798266150248C651.593746194648,1299.396941440617,672.5137684897571,1407.2237492775548,672.1581116441524,1579.4604448417174C671.8024547985477,1751.69714040588,645.3596852740254,2063.2434074736198,640,2160L 1920 2160 L 1920 -1080 Z" fill="url(&quot;#SvgjsLinearGradient1150&quot;)"></path><path d="M960,-1080C968.9270486267169,-999.4017270655197,1008.5362436630526,-742.1484944096095,1013.5622917603014,-596.410362393118C1018.5883398575502,-450.67223037662654,1000.5604730186493,-334.6215976365771,990.1562885834928,-205.5712079010512C979.7521041483363,-76.52081816552527,966.6941329053917,45.622875059538956,951.1371851493626,177.8919760200375C935.5802373933335,310.16107698053605,885.3459649317318,461.45783002042975,896.8146020473183,588.0433978619401C908.2832391629048,714.6289657034504,1016.6980225634728,800.2059018665723,1019.9490078428813,937.4053830690996C1023.1999931222898,1074.6048642716269,928.3362050440278,1279.631631873463,916.3205137237693,1411.2402850771036C904.3048224035108,1542.8489382807443,940.5749455419586,1602.2640164704608,947.8548599213304,1727.0573022909434C955.1347743007022,1851.850588111426,957.9758099868884,2087.8428837151573,960,2160L 1920 2160 L 1920 -1080 Z" fill="url(&quot;#SvgjsLinearGradient1151&quot;)"></path><path d="M1280,-1080C1292.9788111079756,-949.3722274404657,1355.8322016691368,-561.440179568159,1357.8728666478532,-296.2333646427946C1359.9135316265697,-31.0265497174301,1304.700084547806,246.37159664625153,1292.243989872299,511.2408895521869C1279.7878951967919,776.1101824581223,1285.176963573527,1018.189207718182,1283.1362985948106,1292.9823927928176C1281.0956336160941,1567.7755778674532,1280.5227164324683,2015.4970654654696,1280,2160L 1920 2160 L 1920 -1080 Z" fill="url(&quot;#SvgjsLinearGradient1152&quot;)"></path><path d="M1600,-1080C1601.688990366402,-1003.041727220717,1602.046306137756,-784.3644872676307,1610.1339421984128,-618.2503633243023C1618.2215782590697,-452.13623938097385,1662.7993412035398,-262.37486465755086,1648.5258163639407,-83.3152563400295C1634.2522915243417,95.74435197749186,1526.6871310415463,256.34090210069496,1524.492793160818,456.10728658082604C1522.29845528009,655.8736710609571,1609.8715014581435,931.9899500856321,1635.3597890795722,1115.283050540757C1660.848076701001,1298.5761509958816,1683.3158170693187,1381.746397735034,1677.42251888939,1555.8658893115744C1671.5292207094612,1729.9853808881148,1612.9037531482318,2059.310981551929,1600,2160L 1920 2160 L 1920 -1080 Z" fill="url(&quot;#SvgjsLinearGradient1153&quot;)"></path></g><defs><linearGradient x1="0.1" y1="0" x2="0" y2="1" id="SvgjsLinearGradient1148"><stop stop-color="#355e91" offset="0"></stop><stop stop-color="#356d91" offset="0"></stop></linearGradient><linearGradient x1="0.1" y1="0" x2="0" y2="1" id="SvgjsLinearGradient1149"><stop stop-color="#2d507c" offset="0"></stop><stop stop-color="#2d5d7c" offset="0.16666666666666666"></stop></linearGradient><linearGradient x1="0.1" y1="0" x2="0" y2="1" id="SvgjsLinearGradient1150"><stop stop-color="#254266" offset="0"></stop><stop stop-color="#254d66" offset="0.3333333333333333"></stop></linearGradient><linearGradient x1="0.1" y1="0" x2="0" y2="1" id="SvgjsLinearGradient1151"><stop stop-color="#1e3451" offset="0"></stop><stop stop-color="#1e3c51" offset="0.5"></stop></linearGradient><linearGradient x1="0.1" y1="0" x2="0" y2="1" id="SvgjsLinearGradient1152"><stop stop-color="#16273b" offset="0"></stop><stop stop-color="#162d3b" offset="0.6666666666666666"></stop></linearGradient><linearGradient x1="0.1" y1="0" x2="0" y2="1" id="SvgjsLinearGradient1153"><stop stop-color="#0e1926" offset="0"></stop><stop stop-color="#0e1d26" offset="0.8333333333333334"></stop></linearGradient></defs></svg>